<svg width="285" height="301" viewBox="0 0 285 301" fill="none" xmlns="http://www.w3.org/2000/svg">
<g clip-path="url(#clip0_2008_81)">
<path d="M108.803 252.261C93.4523 255.068 79.3041 246.418 70.5976 234.275C62.5497 223.077 59.8576 210.046 58.2537 196.757C55.6475 195.353 53.2131 193.75 50.9505 192.06C40.0101 183.754 19.9907 164.308 34.9694 150.446C49.2894 137.157 63.008 155.114 64.6977 168.775C65.5569 175.85 65.9579 183.353 66.6739 190.857C70.0821 192.289 73.6048 193.205 77.2134 193.434C87.6384 194.065 97.8056 189.053 97.4332 177.396C97.0609 165.94 88.0393 156.374 80.908 148.298C68.1345 133.777 50.4637 114.732 58.0533 93.5096C59.5425 89.3568 63.0939 84.9462 67.5904 81.2516C63.5235 68.8792 68.1632 56.3921 82.8555 50.6641C101.872 43.275 119.772 52.2393 135.181 63.3516V15.4083C135.238 8.30558 130.312 2.14798 123.381 0.630061C115.849 -0.830579 108.03 0.229101 101.156 3.63726C89.9868 8.99294 83.4283 20.9358 83.4283 33.3369V34.1675C60.86 29.5565 38.8072 44.1342 34.1961 66.7025C31.7617 78.674 34.683 91.1324 42.2153 100.755C17.9 104.593 0 125.558 0 150.188C0 167.888 9.1648 183.41 23.0266 192.432C16.5539 204.003 14.4632 218.666 19.5038 234.246C26.0051 254.266 45.7094 267.011 66.7598 267.011H67.5904C71.5713 286.429 88.6694 300.376 108.488 300.376C115.362 300.376 121.777 298.658 127.448 295.679C132.288 293.044 135.238 287.946 135.181 282.419V233.101C128.88 242.495 120.374 250.113 108.803 252.232V252.261Z" fill="#3362FF"></path>
<path d="M113.586 142.054L113.214 142.255L135.209 99.123V74.8649C125.672 67.304 115.19 59.7144 103.075 57.7096C93.2232 56.0771 75.896 59.2275 74.8649 71.9436C74.7504 73.3756 74.8936 74.8076 75.2372 76.211C85.0608 71.1417 96.4022 70.3971 102.073 80.4211C106.34 87.982 103.133 97.8915 94.9988 101.214C86.2923 104.765 78.3304 98.3211 73.3184 91.7912C72.8315 91.1611 72.3732 90.5024 71.9436 89.8723C65.8433 96.1444 64.2681 104.937 67.8768 114.474C74.8649 133.004 93.4809 144.174 102.417 161.587C108.488 173.415 108.975 189.196 97.1182 197.645C88.3544 203.888 77.7289 203.974 67.9054 200.881C69.1942 209.215 71.3136 217.32 75.4091 224.538C81.4521 235.192 92.4499 244.901 105.51 243.44C120.947 241.693 129.997 226.399 135.209 212.967V141.166L108.402 150.188L113.615 142.026L113.586 142.054Z" fill="#3362FF"></path>
<path d="M39.3513 160.327C38.0912 164.336 41.0411 168.833 43.275 171.783C46.9409 176.594 51.6952 181.463 57.0509 185.358C56.8217 182.952 56.564 180.546 56.3062 178.169C55.5902 171.869 55.9625 164.078 51.552 158.981C47.972 154.856 41.2989 154.055 39.3227 160.355L39.3513 160.327Z" fill="#3362FF"></path>
<path d="M83.3997 89.5C85.9773 92.1348 90.1587 92.7363 93.1086 90.531C95.3712 88.8413 95.2566 86.7792 92.7936 84.3161C91.0752 82.6264 88.6694 81.7958 86.2923 82.1681C84.2016 82.5118 82.0536 83.3424 80.5357 84.0011C79.8769 84.2875 79.6478 85.1467 80.0774 85.7195C80.9653 86.8651 81.9104 87.9534 82.8269 88.8985C82.9987 89.099 83.1705 89.2995 83.371 89.4713L83.3997 89.5Z" fill="#3362FF"></path>
<path d="M197.53 82.1681C191.258 82.1395 185.243 93.1373 196.642 92.679C199.477 92.5645 202.485 89.3854 204.833 86.0345C205.377 85.2613 205.12 84.3448 204.26 83.9725C202.256 83.0846 199.678 82.1968 197.53 82.1968V82.1681Z" fill="#3362FF"></path>
<path d="M149.73 212.967C155.458 227.545 166.141 244.729 183.64 243.497C199.248 242.409 209.902 227.516 214.17 213.798C215.459 209.645 216.203 205.377 216.719 201.081C204.232 204.575 188.852 202.857 181.663 191.115C173.386 177.625 181.091 161.988 189.654 150.961C200.738 136.699 223.907 118.999 218.609 98.2638C217.807 95.1421 216.003 92.4499 213.683 90.1873C210.733 94.5979 206.638 98.3211 201.654 100.641C182.294 109.634 172.126 77.9581 192.89 73.3757C198.561 72.1155 204.375 73.5761 209.645 76.211C210.475 72.6597 210.103 69.051 207.84 65.8147C201.282 56.3635 186.332 56.0771 176.594 59.027C166.599 62.0915 157.892 68.4209 149.73 74.8936V99.1516L171.725 142.283L171.439 142.14L142.484 126.531L113.615 142.083L108.402 150.245L142.312 138.818L149.758 141.281V212.996L149.73 212.967Z" fill="#3362FF"></path>
<path d="M244.099 158.379C240.776 154.226 236.767 155.229 233.359 158.952C228.633 164.107 229.177 173.215 228.433 179.63C228.232 181.463 228.003 183.296 227.774 185.129C233.33 181.091 239.087 175.993 242.838 170.265C245.244 166.627 247.192 162.217 244.127 158.379H244.099Z" fill="#3362FF"></path>
<path d="M284.939 150.188C284.939 125.558 267.039 104.593 242.695 100.784C256.901 82.6264 253.693 56.3921 235.535 42.2153C225.912 34.683 213.454 31.7618 201.482 34.1962V33.3656C201.482 20.9645 194.924 8.99296 183.754 3.66592C176.881 0.229124 169.09 -0.830555 161.558 0.658724C154.627 2.17664 149.701 8.33424 149.758 15.437V63.4662C167.028 51.151 188.05 41.1843 207.926 53.5854C218.151 59.9721 220.7 71.2849 217.75 81.5094C218.208 81.8817 218.695 82.2827 219.125 82.655C226.972 89.5 229.464 98.9798 228.032 109.09C224.881 131.314 204.26 144.603 192.89 162.36C187.964 170.036 184.069 182.208 192.174 189.31C199.248 195.525 209.301 194.351 217.836 190.8C218.008 189.11 218.179 187.449 218.409 185.759C219.583 176.623 219.125 166.083 223.277 157.606C226.6 150.818 233.129 145.233 241.091 146.236C248.223 147.124 253.922 152.995 254.953 160.04C257.158 175.219 239.659 190.026 226.456 197.129C226.456 197.415 226.399 197.73 226.37 198.017C224.996 214.428 219.783 231.182 207.153 242.495C197.358 251.259 184.012 255.469 171.267 251.03C162.016 247.822 155.086 241.206 149.758 233.273V282.476C149.758 287.946 152.651 293.159 157.52 295.737C163.191 298.715 169.606 300.462 176.451 300.462C196.298 300.462 213.368 286.514 217.349 267.068H218.179C239.201 267.068 258.934 254.294 265.435 234.304C270.505 218.724 268.385 204.06 261.913 192.489C276.261 183.239 284.911 167.343 284.939 150.274V150.188Z" fill="#3362FF"></path>
</g>
<defs>
<clipPath id="clip0_2008_81">
<rect width="284.939" height="300.405" fill="white"></rect>
</clipPath>
</defs>
</svg>