<svg width="1684" height="301" viewBox="0 0 1684 301" fill="none" xmlns="http://www.w3.org/2000/svg">
<path d="M344.632 259.407V56.7487H386.106V259.407H344.632Z" fill="#FDFEF9"></path>
<path d="M484.475 259.407V160.528C484.475 151.907 483.035 145.441 480.186 141.13C477.337 136.82 473.137 134.664 467.615 134.664C460.947 134.664 455.895 137.056 452.458 141.839C449.022 146.622 447.318 153.324 447.318 161.975V259.436H407.577V106.203H444.469V131.505H445.615C448.846 122.677 453.898 115.68 460.771 110.513C467.644 105.346 475.545 102.748 484.504 102.748C493.463 102.748 501.481 104.756 507.385 108.771C513.289 112.787 517.636 118.78 520.397 126.752C523.158 134.694 524.539 144.614 524.539 156.513V259.436H484.504L484.475 259.407Z" fill="#FDFEF9"></path>
<path d="M537.962 259.407V220.316L600.585 138.384V137.233H539.666V106.173H635.773V145.559L573.151 227.195V228.347H638.652V259.407H537.992H537.962Z" fill="#FDFEF9"></path>
<path d="M672.665 81.4606C666.174 81.4606 660.945 79.2462 656.921 74.847C652.897 70.4478 650.929 65.2515 650.929 59.317C650.929 53.3825 652.927 48.068 656.921 43.9346C660.916 39.8011 666.174 37.7639 672.665 37.7639C679.156 37.7639 684.208 39.8306 687.821 43.9346C691.434 48.068 693.255 53.0873 693.255 59.0217C693.255 64.9562 691.405 70.4183 687.674 74.847C683.944 79.2757 678.951 81.4606 672.665 81.4606ZM651.781 259.407V106.173H691.816V259.407H651.781Z" fill="#FDFEF9"></path>
<path d="M787.336 259.407V160.528C787.336 151.907 785.897 145.441 783.048 141.13C780.198 136.82 775.998 134.664 770.476 134.664C763.808 134.664 758.756 137.056 755.32 141.839C751.883 146.622 750.18 153.324 750.18 161.975V259.436H710.438V106.203H747.33V131.505H748.476C751.707 122.677 756.759 115.68 763.632 110.513C770.505 105.346 778.407 102.748 787.365 102.748C796.324 102.748 804.343 104.756 810.247 108.771C816.15 112.787 820.498 118.78 823.259 126.752C826.02 134.694 827.4 144.614 827.4 156.513V259.436H787.365L787.336 259.407Z" fill="#FDFEF9"></path>
<path d="M921.744 259.407V160.528C921.744 151.907 920.305 145.441 917.456 141.13C914.607 136.82 910.406 134.664 904.884 134.664C898.217 134.664 893.165 137.056 889.728 141.839C886.291 146.622 884.588 153.324 884.588 161.975V259.436H844.847V106.203H881.739V131.505H882.884C886.115 122.677 891.167 115.68 898.041 110.513C904.914 105.346 912.815 102.748 921.774 102.748C930.732 102.748 938.751 104.756 944.655 108.771C950.559 112.787 954.906 118.78 957.667 126.752C960.428 134.694 961.808 144.614 961.808 156.513V259.436H921.774L921.744 259.407Z" fill="#FDFEF9"></path>
<path d="M1009.83 262.861C997.82 262.861 988.391 258.846 981.518 250.786C974.645 242.725 971.208 232.096 971.208 218.869C971.208 206.617 975.203 196.106 983.222 187.396C991.24 178.686 1004.28 172.486 1022.4 168.854L1058.74 161.946V184.945L1035.01 189.256C1026.22 190.968 1019.76 194.098 1015.56 198.615C1011.36 203.133 1009.28 209.008 1009.28 216.301C1009.28 221.851 1010.66 226.516 1013.42 230.236C1016.18 233.986 1020.52 235.846 1026.43 235.846C1030.25 235.846 1033.63 234.695 1036.59 232.392C1039.56 230.089 1041.85 226.634 1043.46 222.029C1045.08 217.423 1045.9 211.783 1045.9 205.081V152.763C1045.9 146.445 1044.46 141.278 1041.61 137.233C1038.77 133.188 1034.56 131.21 1029.04 131.21C1024.46 131.21 1020.5 132.834 1017.18 136.111C1013.83 139.359 1011.21 144.733 1009.3 152.202L975.849 145.028C979.286 131.24 985.953 120.729 995.881 113.554C1005.78 106.38 1017.79 102.778 1031.92 102.778C1049.28 102.778 1062.41 107.561 1071.4 117.156C1080.36 126.752 1084.85 140.54 1084.85 158.55V229.557L1092.87 259.466H1052.83L1047.4 239.064H1045.4C1042.17 246.918 1037.53 252.852 1031.54 256.897C1025.55 260.913 1018.32 262.92 1009.95 262.92L1009.83 262.861Z" fill="#FDFEF9"></path>
<path d="M1277.42 115.323V99.5277H1333.14V115.323H1277.42ZM1295.63 172.808V103.72H1314.87V172.808H1295.63Z" fill="#3362FF"></path>
<path d="M1341.22 172.808V99.5565H1359.81V123.767H1360.22C1361.75 121.287 1363.78 119.309 1366.36 117.891C1368.94 116.474 1371.85 115.766 1375.08 115.766C1378.81 115.766 1382.07 116.504 1384.86 118.01C1387.66 119.486 1389.83 121.818 1391.41 124.977C1393 128.137 1393.79 132.24 1393.79 137.289V172.837H1375.2V140.005C1375.2 136.817 1374.55 134.425 1373.29 132.772C1372.03 131.148 1370.18 130.321 1367.77 130.321C1365.21 130.321 1363.25 131.148 1361.87 132.801C1360.49 134.455 1359.81 136.846 1359.81 139.976V172.808H1341.22Z" fill="#3362FF"></path>
<path d="M1430.51 174.048C1424.58 174.048 1419.44 172.808 1415.06 170.298C1410.68 167.818 1407.28 164.305 1404.87 159.817C1402.46 155.329 1401.26 150.074 1401.26 144.139C1401.26 138.588 1402.52 133.687 1405.04 129.436C1407.57 125.184 1410.95 121.848 1415.24 119.397C1419.5 116.976 1424.34 115.766 1429.72 115.766C1435.5 115.766 1440.44 116.917 1444.49 119.191C1448.55 121.464 1451.66 124.682 1453.8 128.816C1455.95 132.949 1457 137.85 1457 143.519C1457 144.434 1456.97 145.438 1456.89 146.59C1456.83 147.741 1456.71 148.686 1456.56 149.454H1409.83V138.441H1443.73L1439.5 139.681C1439.5 136.906 1439.15 134.632 1438.41 132.861C1437.68 131.089 1436.59 129.79 1435.15 128.904C1433.71 128.048 1431.89 127.605 1429.66 127.605C1427.6 127.605 1425.75 128.048 1424.17 128.904C1422.58 129.761 1421.38 131.119 1420.55 132.89C1419.73 134.691 1419.32 136.905 1419.32 139.533V148.568C1419.32 151.697 1420.35 154.414 1422.43 156.776C1424.49 159.138 1427.54 160.319 1431.54 160.319C1433.68 160.319 1435.8 159.876 1437.88 159.02C1440 158.163 1441.7 156.687 1442.99 154.591L1456.12 163.124C1454.6 165.338 1452.66 167.287 1450.28 168.94C1447.9 170.593 1445.05 171.863 1441.76 172.719C1438.44 173.575 1434.68 174.018 1430.48 174.018L1430.51 174.048Z" fill="#3362FF"></path>
<path d="M1464.44 172.808V117.006H1481.59V126.985H1482.12C1483.15 123.59 1484.97 120.874 1487.61 118.836C1490.22 116.799 1493.31 115.766 1496.8 115.766C1497.42 115.766 1498.01 115.766 1498.51 115.825C1499.01 115.884 1499.48 115.943 1499.92 116.091V133.126C1499.15 132.861 1498.27 132.683 1497.27 132.595C1496.28 132.536 1495.07 132.477 1493.72 132.477C1491.52 132.477 1489.61 132.92 1488.02 133.835C1486.44 134.75 1485.2 136.02 1484.35 137.673C1483.5 139.327 1483.06 141.423 1483.06 143.903V172.778H1464.46L1464.44 172.808Z" fill="#3362FF"></path>
<path d="M1521.07 174.048C1515.54 174.048 1511.14 172.513 1507.79 169.472C1504.44 166.431 1502.77 162.474 1502.77 157.632C1502.77 152.79 1504.35 149.011 1507.53 145.881C1510.7 142.752 1516.01 140.685 1523.45 139.652L1540.72 137.054V146.708L1528.12 148.982C1525.65 149.395 1523.71 150.133 1522.39 151.225C1521.04 152.288 1520.36 153.912 1520.36 156.067C1520.36 157.809 1520.95 159.227 1522.12 160.378C1523.3 161.53 1524.97 162.091 1527.18 162.091C1528.91 162.091 1530.41 161.707 1531.73 160.91C1533.05 160.112 1534.05 158.961 1534.78 157.426C1535.52 155.89 1535.87 154.06 1535.87 151.904V135.371C1535.87 133.304 1535.25 131.621 1534.05 130.381C1532.84 129.141 1531.08 128.521 1528.73 128.521C1526.79 128.521 1525.18 128.993 1523.89 129.968C1522.56 130.942 1521.68 132.448 1521.18 134.544L1504.44 131.414C1505.97 126.218 1508.99 122.321 1513.55 119.663C1518.1 117.036 1523.45 115.707 1529.58 115.707C1537.98 115.707 1544.18 117.626 1548.15 121.464C1552.11 125.303 1554.08 130.558 1554.08 137.201V162.652L1557.81 172.719H1539.1L1536.93 165.958H1536.1C1534.67 168.586 1532.67 170.594 1530.11 171.922C1527.56 173.28 1524.56 173.96 1521.12 173.96L1521.07 174.048Z" fill="#3362FF"></path>
<path d="M1565.01 193.593V117.005H1582.57V124.682H1583.1C1584.07 122.822 1585.33 121.228 1586.89 119.958C1588.45 118.688 1590.24 117.655 1592.32 116.887C1594.38 116.12 1596.67 115.736 1599.14 115.736C1603.63 115.736 1607.6 116.917 1611.06 119.279C1614.53 121.641 1617.26 125.007 1619.23 129.406C1621.2 133.805 1622.17 138.972 1622.17 144.936C1622.17 150.9 1621.2 155.978 1619.23 160.377C1617.26 164.777 1614.59 168.142 1611.18 170.504C1607.77 172.866 1603.87 174.047 1599.43 174.047C1597.02 174.047 1594.82 173.693 1592.82 172.955C1590.83 172.217 1589.09 171.213 1587.65 169.884C1586.21 168.556 1585.01 167.08 1584.04 165.426H1583.63V193.593H1565.04H1565.01ZM1592.82 160.436C1595.03 160.436 1596.88 159.787 1598.4 158.517C1599.93 157.248 1601.08 155.447 1601.87 153.173C1602.66 150.9 1603.07 148.154 1603.07 144.965C1603.07 141.777 1602.66 138.942 1601.87 136.639C1601.08 134.337 1599.93 132.565 1598.4 131.295C1596.88 130.026 1595.03 129.376 1592.82 129.376C1590.62 129.376 1588.77 130.026 1587.24 131.295C1585.72 132.565 1584.57 134.366 1583.78 136.639C1582.98 138.913 1582.6 141.688 1582.6 144.965C1582.6 148.243 1582.98 150.811 1583.78 153.114C1584.57 155.417 1585.72 157.248 1587.24 158.517C1588.77 159.787 1590.62 160.436 1592.82 160.436Z" fill="#3362FF"></path>
<path d="M1642.52 172.808L1622.67 117.006H1642.2L1653.07 158.105H1658.44L1658.03 172.808H1642.52ZM1639.03 193.593L1647.31 169.678L1653.01 161.234L1663.76 117.006H1683.2L1657.35 193.593H1639.06H1639.03Z" fill="#3362FF"></path>
<path d="M1314.18 265.387C1306.87 265.387 1300.46 263.764 1294.91 260.545C1289.36 257.327 1285.04 252.839 1281.99 247.082C1278.93 241.325 1277.38 234.652 1277.38 227.035C1277.38 219.417 1278.9 212.627 1281.93 206.869C1284.95 201.112 1289.21 196.624 1294.71 193.406C1300.2 190.188 1306.54 188.564 1313.77 188.564C1319.08 188.564 1323.84 189.273 1328.04 190.631C1332.24 192.018 1335.86 194.056 1338.85 196.713C1341.85 199.37 1344.17 202.647 1345.84 206.545L1328.07 214.132C1326.75 211.15 1324.96 208.847 1322.7 207.224C1320.44 205.6 1317.7 204.773 1314.53 204.773C1311.15 204.773 1308.22 205.629 1305.75 207.312C1303.28 209.025 1301.37 211.505 1300.05 214.782C1298.73 218.059 1298.08 222.134 1298.08 227.005C1298.08 231.877 1298.76 236.069 1300.11 239.435C1301.46 242.801 1303.34 245.311 1305.81 247.023C1308.28 248.735 1311.15 249.562 1314.53 249.562C1317.91 249.562 1320.67 249.001 1322.84 247.909C1325.02 246.787 1326.66 245.163 1327.81 243.037C1328.95 240.882 1329.54 238.225 1329.63 235.036L1332.54 237.723H1311.86V223.167H1348.13V232.32C1348.13 239.465 1346.72 245.488 1343.9 250.389C1341.08 255.32 1337.15 259.04 1332.07 261.549C1327.02 264.088 1321.05 265.358 1314.24 265.358L1314.18 265.387Z" fill="#3362FF"></path>
<path d="M1356.68 263.617V207.815H1373.84V217.794H1374.36C1375.39 214.399 1377.21 211.682 1379.86 209.645C1382.47 207.608 1385.56 206.575 1389.05 206.575C1389.67 206.575 1390.26 206.575 1390.75 206.634C1391.25 206.693 1391.72 206.752 1392.16 206.899V223.935C1391.4 223.67 1390.52 223.492 1389.52 223.404C1388.52 223.345 1387.32 223.286 1385.97 223.286C1383.76 223.286 1381.85 223.729 1380.27 224.644C1378.68 225.559 1377.45 226.829 1376.6 228.482C1375.75 230.135 1375.3 232.232 1375.3 234.712V263.587H1356.71L1356.68 263.617Z" fill="#3362FF"></path>
<path d="M1424.59 264.857C1418.45 264.857 1413.17 263.617 1408.73 261.107C1404.29 258.627 1400.86 255.173 1398.45 250.773C1396.04 246.374 1394.84 241.384 1394.84 235.775C1394.84 230.165 1396.04 224.969 1398.45 220.599C1400.86 216.229 1404.29 212.804 1408.73 210.324C1413.17 207.844 1418.45 206.575 1424.59 206.575C1430.73 206.575 1436.02 207.815 1440.45 210.324C1444.89 212.804 1448.32 216.259 1450.73 220.599C1453.14 224.969 1454.35 230.017 1454.35 235.775C1454.35 241.532 1453.14 246.463 1450.73 250.832C1448.32 255.202 1444.89 258.627 1440.45 261.107C1436.02 263.587 1430.73 264.857 1424.59 264.857ZM1424.59 251.246C1426.85 251.246 1428.79 250.685 1430.32 249.592C1431.88 248.47 1433.08 246.758 1433.93 244.455C1434.78 242.123 1435.22 239.229 1435.22 235.775C1435.22 232.32 1434.78 229.309 1433.93 227.006C1433.08 224.673 1431.88 222.961 1430.32 221.869C1428.76 220.747 1426.85 220.215 1424.59 220.215C1422.33 220.215 1420.39 220.776 1418.8 221.869C1417.22 222.961 1416.01 224.673 1415.19 226.947C1414.37 229.22 1413.96 232.173 1413.96 235.775C1413.96 239.377 1414.37 242.123 1415.19 244.455C1416.01 246.787 1417.22 248.5 1418.8 249.592C1420.39 250.685 1422.33 251.246 1424.59 251.246Z" fill="#3362FF"></path>
<path d="M1487.54 264.857C1482.31 264.857 1477.76 264.03 1473.88 262.377C1470.03 260.723 1467.03 258.184 1464.95 254.789C1462.86 251.393 1461.81 247.112 1461.81 241.916V207.844H1480.4V241.089C1480.4 244.13 1480.96 246.463 1482.04 248.116C1483.16 249.74 1484.98 250.567 1487.54 250.567C1489.8 250.567 1491.59 249.74 1492.85 248.116C1494.12 246.492 1494.76 244.16 1494.76 241.089V207.844H1513.36V241.916C1513.36 247.112 1512.27 251.393 1510.1 254.789C1507.92 258.184 1504.9 260.723 1500.99 262.377C1497.08 264.03 1492.59 264.857 1487.51 264.857H1487.54Z" fill="#3362FF"></path>
<path d="M1523.72 284.402V207.814H1541.29V215.491H1541.82C1542.79 213.631 1544.05 212.036 1545.61 210.767C1547.16 209.497 1548.96 208.464 1551.04 207.696C1553.1 206.929 1555.39 206.545 1557.86 206.545C1562.35 206.545 1566.31 207.726 1569.78 210.088C1573.25 212.45 1575.98 215.816 1577.95 220.215C1579.91 224.614 1580.88 229.781 1580.88 235.745C1580.88 241.709 1579.91 246.787 1577.95 251.186C1575.98 255.585 1573.31 258.951 1569.9 261.313C1566.49 263.675 1562.58 264.856 1558.15 264.856C1555.74 264.856 1553.54 264.502 1551.54 263.764C1549.54 263.026 1547.81 262.022 1546.37 260.693C1544.93 259.365 1543.73 257.888 1542.76 256.235H1542.35V284.402H1523.75H1523.72ZM1551.54 251.245C1553.74 251.245 1555.59 250.596 1557.12 249.326C1558.65 248.057 1559.79 246.256 1560.59 243.982C1561.38 241.709 1561.79 238.963 1561.79 235.774C1561.79 232.586 1561.38 229.751 1560.59 227.448C1559.79 225.145 1558.65 223.374 1557.12 222.104C1555.59 220.835 1553.74 220.185 1551.54 220.185C1549.34 220.185 1547.49 220.835 1545.96 222.104C1544.43 223.374 1543.29 225.175 1542.49 227.448C1541.7 229.722 1541.32 232.497 1541.32 235.774C1541.32 239.052 1541.7 241.62 1542.49 243.923C1543.29 246.226 1544.43 248.057 1545.96 249.326C1547.49 250.596 1549.34 251.245 1551.54 251.245Z" fill="#3362FF"></path>
<g opacity="0.4">
<path d="M1193.23 62.7299H1181.66V265.388H1193.23V62.7299Z" fill="#FDFEF9"></path>
</g>
<g clip-path="url(#clip0_2008_176)">
<path d="M108.803 252.261C93.4523 255.068 79.3041 246.418 70.5976 234.275C62.5497 223.077 59.8576 210.046 58.2537 196.757C55.6475 195.353 53.2131 193.75 50.9505 192.06C40.0101 183.754 19.9907 164.308 34.9694 150.446C49.2894 137.157 63.008 155.114 64.6977 168.775C65.5569 175.85 65.9579 183.353 66.6739 190.857C70.0821 192.289 73.6048 193.205 77.2134 193.434C87.6384 194.065 97.8056 189.053 97.4332 177.396C97.0609 165.94 88.0393 156.374 80.908 148.298C68.1345 133.777 50.4637 114.732 58.0533 93.5096C59.5425 89.3568 63.0939 84.9462 67.5904 81.2516C63.5235 68.8792 68.1632 56.3921 82.8555 50.6641C101.872 43.275 119.772 52.2393 135.181 63.3516V15.4083C135.238 8.30558 130.312 2.14798 123.381 0.630061C115.849 -0.830579 108.03 0.229101 101.156 3.63726C89.9868 8.99294 83.4283 20.9358 83.4283 33.3369V34.1675C60.86 29.5565 38.8072 44.1342 34.1961 66.7025C31.7617 78.674 34.683 91.1324 42.2153 100.755C17.9 104.593 0 125.558 0 150.188C0 167.888 9.1648 183.41 23.0266 192.432C16.5539 204.003 14.4632 218.666 19.5038 234.246C26.0051 254.266 45.7094 267.011 66.7598 267.011H67.5904C71.5713 286.429 88.6694 300.376 108.488 300.376C115.362 300.376 121.777 298.658 127.448 295.679C132.288 293.044 135.238 287.946 135.181 282.419V233.101C128.88 242.495 120.374 250.113 108.803 252.232V252.261Z" fill="#3362FF"></path>
<path d="M113.586 142.054L113.214 142.255L135.209 99.123V74.8649C125.672 67.304 115.19 59.7144 103.075 57.7096C93.2231 56.0771 75.8959 59.2275 74.8648 71.9436C74.7503 73.3756 74.8935 74.8076 75.2372 76.211C85.0607 71.1417 96.4021 70.3971 102.073 80.4211C106.34 87.982 103.132 97.8915 94.9987 101.214C86.2922 104.765 78.3303 98.3211 73.3183 91.7912C72.8314 91.1611 72.3732 90.5024 71.9436 89.8723C65.8432 96.1444 64.268 104.937 67.8767 114.474C74.8648 133.004 93.4808 144.174 102.416 161.587C108.488 173.415 108.975 189.196 97.1181 197.645C88.3543 203.888 77.7288 203.974 67.9053 200.881C69.1941 209.215 71.3135 217.32 75.409 224.538C81.452 235.192 92.4498 244.901 105.51 243.44C120.947 241.693 129.997 226.399 135.209 212.967V141.166L108.402 150.188L113.615 142.026L113.586 142.054Z" fill="#3362FF"></path>
<path d="M39.3514 160.327C38.0912 164.336 41.0411 168.833 43.275 171.783C46.941 176.594 51.6952 181.463 57.0509 185.358C56.8218 182.952 56.564 180.546 56.3062 178.169C55.5902 171.869 55.9626 164.078 51.552 158.981C47.972 154.856 41.2989 154.055 39.3227 160.355L39.3514 160.327Z" fill="#3362FF"></path>
<path d="M83.3995 89.5C85.9771 92.1348 90.1585 92.7363 93.1084 90.531C95.371 88.8413 95.2564 86.7792 92.7934 84.3161C91.075 82.6264 88.6692 81.7958 86.2921 82.1681C84.2014 82.5118 82.0534 83.3424 80.5355 84.0011C79.8768 84.2875 79.6476 85.1467 80.0772 85.7195C80.9651 86.8651 81.9102 87.9534 82.8267 88.8985C82.9985 89.099 83.1704 89.2995 83.3708 89.4713L83.3995 89.5Z" fill="#3362FF"></path>
<path d="M197.53 82.1681C191.258 82.1395 185.243 93.1373 196.642 92.679C199.477 92.5645 202.485 89.3854 204.833 86.0345C205.377 85.2613 205.119 84.3448 204.26 83.9725C202.255 83.0846 199.678 82.1968 197.53 82.1968V82.1681Z" fill="#FDFEF9"></path>
<path d="M149.73 212.967C155.458 227.545 166.141 244.729 183.64 243.497C199.248 242.409 209.902 227.516 214.17 213.798C215.459 209.645 216.203 205.377 216.719 201.081C204.232 204.575 188.852 202.857 181.663 191.115C173.386 177.625 181.091 161.988 189.654 150.961C200.738 136.699 223.907 118.999 218.609 98.2638C217.807 95.1421 216.003 92.4499 213.683 90.1873C210.733 94.5979 206.638 98.3211 201.654 100.641C182.294 109.634 172.126 77.9581 192.89 73.3757C198.561 72.1155 204.375 73.5761 209.645 76.211C210.475 72.6597 210.103 69.051 207.84 65.8147C201.282 56.3635 186.332 56.0771 176.594 59.027C166.599 62.0915 157.892 68.4209 149.73 74.8936V99.1516L171.725 142.283L171.439 142.14L142.484 126.531L113.615 142.083L108.402 150.245L142.312 138.818L149.758 141.281V212.996L149.73 212.967Z" fill="#FDFEF9"></path>
<path d="M244.099 158.379C240.776 154.226 236.767 155.229 233.359 158.952C228.633 164.107 229.177 173.215 228.433 179.63C228.232 181.463 228.003 183.296 227.774 185.129C233.33 181.091 239.087 175.993 242.839 170.265C245.244 166.627 247.192 162.217 244.127 158.379H244.099Z" fill="#FDFEF9"></path>
<path d="M284.939 150.188C284.939 125.558 267.039 104.593 242.695 100.784C256.9 82.6264 253.693 56.3921 235.535 42.2153C225.912 34.683 213.454 31.7618 201.482 34.1962V33.3656C201.482 20.9645 194.924 8.99296 183.754 3.66592C176.88 0.229124 169.09 -0.830555 161.558 0.658724C154.627 2.17664 149.701 8.33424 149.758 15.437V63.4662C167.028 51.151 188.05 41.1843 207.926 53.5854C218.151 59.9721 220.7 71.2849 217.75 81.5094C218.208 81.8817 218.695 82.2827 219.124 82.655C226.972 89.5 229.463 98.9798 228.031 109.09C224.881 131.314 204.26 144.603 192.89 162.36C187.964 170.036 184.069 182.208 192.174 189.31C199.248 195.525 209.301 194.351 217.836 190.8C218.007 189.11 218.179 187.449 218.408 185.759C219.583 176.623 219.124 166.083 223.277 157.606C226.599 150.818 233.129 145.233 241.091 146.236C248.223 147.124 253.922 152.995 254.953 160.04C257.158 175.219 239.659 190.026 226.456 197.129C226.456 197.415 226.399 197.73 226.37 198.017C224.996 214.428 219.783 231.182 207.153 242.495C197.358 251.259 184.012 255.469 171.267 251.03C162.016 247.822 155.085 241.206 149.758 233.273V282.476C149.758 287.946 152.651 293.159 157.52 295.737C163.19 298.715 169.606 300.462 176.451 300.462C196.298 300.462 213.368 286.514 217.349 267.068H218.179C239.201 267.068 258.934 254.294 265.435 234.304C270.504 218.724 268.385 204.06 261.912 192.489C276.261 183.239 284.91 167.343 284.939 150.274V150.188Z" fill="#FDFEF9"></path>
</g>
<defs>
<clipPath id="clip0_2008_176">
<rect width="284.939" height="300.405" fill="white"></rect>
</clipPath>
</defs>
</svg>