<svg width="1339" height="247" viewBox="0 0 1339 247" fill="none" xmlns="http://www.w3.org/2000/svg">
<path d="M0 221.643V18.9848H41.4741V221.643H0Z" fill="#101032"></path>
<path d="M139.843 221.643V122.764C139.843 114.143 138.404 107.677 135.555 103.366C132.705 99.0558 128.505 96.9005 122.983 96.9005C116.316 96.9005 111.263 99.292 107.827 104.075C104.39 108.858 102.687 115.56 102.687 124.211V221.672H62.9456V68.4386H99.8375V93.7414H100.983C104.214 84.9135 109.266 77.9161 116.139 72.7492C123.013 67.5824 130.914 64.9842 139.872 64.9842C148.831 64.9842 156.85 66.9919 162.754 71.0073C168.658 75.0227 173.005 81.0162 175.766 88.9879C178.527 96.9301 179.907 106.85 179.907 118.749V221.672H139.872L139.843 221.643Z" fill="#101032"></path>
<path d="M193.331 221.643V182.552L255.953 100.621V99.4691H195.034V68.409H291.142V107.795L228.519 189.431V190.583H294.02V221.643H193.36H193.331Z" fill="#101032"></path>
<path d="M328.033 43.6967C321.542 43.6967 316.314 41.4824 312.29 37.0832C308.265 32.684 306.297 27.4876 306.297 21.5531C306.297 15.6186 308.295 10.3042 312.29 6.17071C316.284 2.03724 321.542 2.44604e-05 328.033 2.44604e-05C334.525 2.44604e-05 339.577 2.06676 343.19 6.17071C346.802 10.3042 348.623 15.3234 348.623 21.2579C348.623 27.1924 346.773 32.6544 343.043 37.0832C339.312 41.5119 334.319 43.6967 328.033 43.6967ZM307.149 221.643V68.409H347.184V221.643H307.149Z" fill="#101032"></path>
<path d="M442.704 221.643V122.764C442.704 114.143 441.265 107.677 438.416 103.366C435.567 99.0558 431.366 96.9005 425.844 96.9005C419.177 96.9005 414.125 99.292 410.688 104.075C407.252 108.858 405.548 115.56 405.548 124.211V221.672H365.807V68.4386H402.699V93.7414H403.844C407.075 84.9135 412.127 77.9161 419.001 72.7492C425.874 67.5824 433.775 64.9842 442.734 64.9842C451.692 64.9842 459.711 66.9919 465.615 71.0073C471.519 75.0227 475.866 81.0162 478.627 88.9879C481.388 96.9301 482.769 106.85 482.769 118.749V221.672H442.734L442.704 221.643Z" fill="#101032"></path>
<path d="M577.113 221.643V122.764C577.113 114.143 575.673 107.677 572.824 103.366C569.975 99.0558 565.775 96.9005 560.253 96.9005C553.585 96.9005 548.533 99.292 545.096 104.075C541.66 108.858 539.956 115.56 539.956 124.211V221.672H500.215V68.4386H537.107V93.7414H538.253C541.484 84.9135 546.536 77.9161 553.409 72.7492C560.282 67.5824 568.183 64.9842 577.142 64.9842C586.101 64.9842 594.119 66.9919 600.023 71.0073C605.927 75.0227 610.274 81.0162 613.035 88.9879C615.796 96.9301 617.177 106.85 617.177 118.749V221.672H577.142L577.113 221.643Z" fill="#101032"></path>
<path d="M665.202 225.097C653.188 225.097 643.76 221.082 636.887 213.022C630.013 204.962 626.577 194.333 626.577 181.106C626.577 168.853 630.572 158.342 638.59 149.632C646.609 140.922 659.65 134.722 677.773 131.091L714.107 124.182V147.182L690.374 151.492C681.592 153.205 675.13 156.334 670.929 160.852C666.729 165.369 664.644 171.244 664.644 178.537C664.644 184.088 666.024 188.752 668.785 192.473C671.546 196.222 675.893 198.082 681.797 198.082C685.616 198.082 688.994 196.931 691.96 194.628C694.927 192.325 697.218 188.871 698.833 184.265C700.449 179.659 701.271 174.02 701.271 167.317V115C701.271 108.681 699.832 103.514 696.983 99.4695C694.134 95.4246 689.934 93.4464 684.411 93.4464C679.829 93.4464 675.864 95.0703 672.545 98.3476C669.197 101.595 666.582 106.969 664.673 114.439L631.218 107.264C634.654 93.476 641.322 82.9651 651.25 75.7906C661.148 68.6161 673.162 65.0141 687.29 65.0141C704.649 65.0141 717.779 69.7971 726.767 79.3926C735.725 88.9882 740.219 102.776 740.219 120.786V191.794L748.238 221.702H708.203L702.769 201.301H700.772C697.541 209.154 692.9 215.089 686.908 219.133C680.916 223.149 673.69 225.157 665.319 225.157L665.202 225.097Z" fill="#101032"></path>
<path d="M932.789 77.5596V61.7638H988.509V77.5596H932.789ZM951 135.044V65.9564H970.239V135.044H951Z" fill="#3362FF"></path>
<path d="M996.585 135.044V61.7927H1015.18V86.003H1015.59C1017.12 83.5229 1019.14 81.5447 1021.73 80.1275C1024.31 78.7104 1027.22 78.0018 1030.45 78.0018C1034.18 78.0018 1037.44 78.7399 1040.23 80.2457C1043.02 81.7219 1045.2 84.0544 1046.78 87.2135C1048.37 90.3727 1049.16 94.4766 1049.16 99.5253V135.073H1030.57V102.242C1030.57 99.0529 1029.92 96.6614 1028.66 95.008C1027.4 93.3842 1025.55 92.5575 1023.14 92.5575C1020.58 92.5575 1018.61 93.3842 1017.23 95.0376C1015.85 96.691 1015.18 99.0825 1015.18 102.212V135.044H996.585Z" fill="#3362FF"></path>
<path d="M1085.88 136.284C1079.95 136.284 1074.81 135.044 1070.43 132.534C1066.05 130.054 1062.64 126.541 1060.24 122.053C1057.83 117.565 1056.62 112.31 1056.62 106.375C1056.62 100.825 1057.89 95.9234 1060.41 91.6719C1062.94 87.4203 1066.32 84.084 1070.6 81.6334C1074.86 79.2124 1079.71 78.0019 1085.09 78.0019C1090.87 78.0019 1095.81 79.1534 1099.86 81.4268C1103.91 83.7002 1107.03 86.9184 1109.17 91.0519C1111.32 95.1853 1112.37 100.086 1112.37 105.755C1112.37 106.67 1112.34 107.674 1112.26 108.826C1112.2 109.977 1112.08 110.922 1111.93 111.69H1065.2V100.677H1099.1L1094.87 101.917C1094.87 99.1417 1094.51 96.8682 1093.78 95.0968C1093.05 93.3253 1091.96 92.0262 1090.52 91.1404C1089.08 90.2842 1087.26 89.8413 1085.03 89.8413C1082.97 89.8413 1081.12 90.2842 1079.53 91.1404C1077.95 91.9966 1076.74 93.3548 1075.92 95.1263C1075.1 96.9273 1074.69 99.1416 1074.69 101.769V110.804C1074.69 113.934 1075.72 116.65 1077.8 119.012C1079.86 121.374 1082.91 122.555 1086.91 122.555C1089.05 122.555 1091.17 122.112 1093.25 121.256C1095.37 120.4 1097.07 118.923 1098.36 116.827L1111.49 125.36C1109.96 127.574 1108.03 129.523 1105.65 131.176C1103.27 132.829 1100.42 134.099 1097.13 134.955C1093.81 135.811 1090.05 136.254 1085.85 136.254L1085.88 136.284Z" fill="#3362FF"></path>
<path d="M1119.8 135.044V79.2419H1136.96V89.2213H1137.49C1138.51 85.826 1140.34 83.1097 1142.98 81.0725C1145.59 79.0353 1148.68 78.0019 1152.17 78.0019C1152.79 78.0019 1153.38 78.0019 1153.88 78.0609C1154.38 78.12 1154.85 78.179 1155.29 78.3267V95.3625C1154.52 95.0968 1153.64 94.9196 1152.64 94.831C1151.64 94.772 1150.44 94.7129 1149.09 94.7129C1146.89 94.7129 1144.98 95.1558 1143.39 96.0711C1141.8 96.9863 1140.57 98.2559 1139.72 99.9093C1138.87 101.563 1138.43 103.659 1138.43 106.139V135.014H1119.83L1119.8 135.044Z" fill="#3362FF"></path>
<path d="M1176.43 136.284C1170.91 136.284 1166.51 134.749 1163.16 131.708C1159.81 128.667 1158.14 124.71 1158.14 119.868C1158.14 115.026 1159.72 111.247 1162.89 108.118C1166.07 104.988 1171.38 102.921 1178.81 101.888L1196.08 99.2896V108.944L1183.48 111.218C1181.02 111.631 1179.08 112.369 1177.76 113.462C1176.4 114.524 1175.73 116.148 1175.73 118.304C1175.73 120.046 1176.32 121.463 1177.49 122.614C1178.67 123.766 1180.34 124.327 1182.54 124.327C1184.28 124.327 1185.77 123.943 1187.1 123.146C1188.42 122.348 1189.42 121.197 1190.15 119.662C1190.89 118.126 1191.24 116.296 1191.24 114.141V97.6067C1191.24 95.54 1190.62 93.8571 1189.42 92.617C1188.21 91.377 1186.45 90.757 1184.1 90.757C1182.16 90.757 1180.55 91.2294 1179.25 92.2037C1177.93 93.178 1177.05 94.6838 1176.55 96.78L1159.81 93.6504C1161.34 88.454 1164.36 84.5568 1168.91 81.8995C1173.47 79.2718 1178.81 77.9432 1184.95 77.9432C1193.35 77.9432 1199.55 79.8623 1203.52 83.7005C1207.48 87.5388 1209.45 92.7942 1209.45 99.4373V124.888L1213.18 134.956H1194.47L1192.3 128.194H1191.47C1190.03 130.822 1188.04 132.83 1185.48 134.158C1182.93 135.517 1179.93 136.196 1176.49 136.196L1176.43 136.284Z" fill="#3362FF"></path>
<path d="M1220.38 155.829V79.2416H1237.94V86.918H1238.47C1239.44 85.058 1240.7 83.4636 1242.26 82.1941C1243.82 80.9245 1245.61 79.8911 1247.69 79.1235C1249.75 78.3559 1252.04 77.972 1254.51 77.972C1259 77.972 1262.97 79.153 1266.43 81.515C1269.9 83.877 1272.63 87.2428 1274.6 91.642C1276.57 96.0412 1277.54 101.208 1277.54 107.172C1277.54 113.136 1276.57 118.214 1274.6 122.614C1272.63 127.013 1269.96 130.379 1266.55 132.741C1263.14 135.103 1259.24 136.283 1254.8 136.283C1252.39 136.283 1250.19 135.929 1248.19 135.191C1246.19 134.453 1244.46 133.449 1243.02 132.121C1241.58 130.792 1240.38 129.316 1239.41 127.662H1239V155.829H1220.41H1220.38ZM1248.19 122.673C1250.39 122.673 1252.25 122.023 1253.77 120.753C1255.3 119.484 1256.45 117.683 1257.24 115.409C1258.03 113.136 1258.44 110.39 1258.44 107.202C1258.44 104.013 1258.03 101.179 1257.24 98.8756C1256.45 96.5726 1255.3 94.8012 1253.77 93.5316C1252.25 92.262 1250.39 91.6125 1248.19 91.6125C1245.99 91.6125 1244.14 92.262 1242.61 93.5316C1241.08 94.8012 1239.94 96.6022 1239.14 98.8756C1238.35 101.149 1237.97 103.924 1237.97 107.202C1237.97 110.479 1238.35 113.047 1239.14 115.35C1239.94 117.653 1241.08 119.484 1242.61 120.753C1244.14 122.023 1245.99 122.673 1248.19 122.673Z" fill="#3362FF"></path>
<path d="M1297.89 135.044L1278.03 79.2422H1297.57L1308.43 120.341H1313.81L1313.4 135.044H1297.89ZM1294.39 155.83L1302.68 131.914L1308.38 123.47L1319.13 79.2422H1338.57L1312.72 155.83H1294.42H1294.39Z" fill="#3362FF"></path>
<path d="M969.548 227.624C962.234 227.624 955.831 226 950.28 222.782C944.728 219.563 940.41 215.076 937.356 209.318C934.301 203.561 932.744 196.888 932.744 189.271C932.744 181.653 934.271 174.863 937.297 169.105C940.322 163.348 944.581 158.86 950.074 155.642C955.567 152.424 961.911 150.8 969.137 150.8C974.453 150.8 979.211 151.509 983.412 152.867C987.612 154.254 991.225 156.292 994.221 158.949C997.217 161.606 999.537 164.883 1001.21 168.781L983.441 176.369C982.119 173.387 980.328 171.084 978.066 169.46C975.804 167.836 973.073 167.009 969.9 167.009C966.523 167.009 963.585 167.865 961.118 169.548C958.651 171.261 956.742 173.741 955.42 177.018C954.098 180.295 953.452 184.37 953.452 189.241C953.452 194.113 954.127 198.305 955.478 201.671C956.83 205.037 958.709 207.547 961.177 209.259C963.644 210.972 966.523 211.798 969.9 211.798C973.278 211.798 976.039 211.237 978.213 210.145C980.387 209.023 982.031 207.399 983.177 205.273C984.322 203.118 984.91 200.461 984.998 197.272L987.906 199.959H967.227V185.403H1003.5V194.556C1003.5 201.701 1002.09 207.724 999.273 212.625C996.453 217.556 992.517 221.276 987.436 223.785C982.384 226.324 976.421 227.594 969.607 227.594L969.548 227.624Z" fill="#3362FF"></path>
<path d="M1012.05 225.853V170.051H1029.2V180.03H1029.73C1030.76 176.635 1032.58 173.919 1035.23 171.881C1037.84 169.844 1040.92 168.811 1044.42 168.811C1045.04 168.811 1045.62 168.811 1046.12 168.87C1046.62 168.929 1047.09 168.988 1047.53 169.136V186.171C1046.77 185.906 1045.89 185.728 1044.89 185.64C1043.89 185.581 1042.69 185.522 1041.33 185.522C1039.13 185.522 1037.22 185.965 1035.64 186.88C1034.05 187.795 1032.82 189.065 1031.97 190.718C1031.11 192.372 1030.67 194.468 1030.67 196.948V225.823H1012.08L1012.05 225.853Z" fill="#3362FF"></path>
<path d="M1079.96 227.093C1073.82 227.093 1068.53 225.853 1064.1 223.343C1059.66 220.863 1056.23 217.409 1053.82 213.009C1051.41 208.61 1050.2 203.621 1050.2 198.011C1050.2 192.401 1051.41 187.205 1053.82 182.835C1056.23 178.465 1059.66 175.041 1064.1 172.56C1068.53 170.08 1073.82 168.811 1079.96 168.811C1086.1 168.811 1091.39 170.051 1095.82 172.56C1100.26 175.041 1103.69 178.495 1106.1 182.835C1108.51 187.205 1109.71 192.253 1109.71 198.011C1109.71 203.768 1108.51 208.699 1106.1 213.068C1103.69 217.438 1100.26 220.863 1095.82 223.343C1091.39 225.823 1086.1 227.093 1079.96 227.093ZM1079.96 213.482C1082.22 213.482 1084.16 212.921 1085.69 211.828C1087.24 210.706 1088.45 208.994 1089.3 206.691C1090.15 204.359 1090.59 201.465 1090.59 198.011C1090.59 194.556 1090.15 191.545 1089.3 189.242C1088.45 186.909 1087.24 185.197 1085.69 184.105C1084.13 182.983 1082.22 182.451 1079.96 182.451C1077.7 182.451 1075.76 183.012 1074.17 184.105C1072.59 185.197 1071.38 186.909 1070.56 189.183C1069.74 191.456 1069.33 194.409 1069.33 198.011C1069.33 201.613 1069.74 204.359 1070.56 206.691C1071.38 209.024 1072.59 210.736 1074.17 211.828C1075.76 212.921 1077.7 213.482 1079.96 213.482Z" fill="#3362FF"></path>
<path d="M1142.91 227.093C1137.68 227.093 1133.12 226.266 1129.25 224.613C1125.4 222.959 1122.4 220.42 1120.32 217.025C1118.23 213.629 1117.17 209.348 1117.17 204.152V170.08H1135.77V203.325C1135.77 206.366 1136.33 208.699 1137.41 210.352C1138.53 211.976 1140.35 212.803 1142.91 212.803C1145.17 212.803 1146.96 211.976 1148.22 210.352C1149.48 208.728 1150.13 206.396 1150.13 203.325V170.08H1168.72V204.152C1168.72 209.348 1167.64 213.629 1165.46 217.025C1163.29 220.42 1160.26 222.959 1156.36 224.613C1152.45 226.266 1147.96 227.093 1142.88 227.093H1142.91Z" fill="#3362FF"></path>
<path d="M1179.09 246.638V170.05H1196.66V177.727H1197.19C1198.16 175.867 1199.42 174.273 1200.98 173.003C1202.53 171.733 1204.32 170.7 1206.41 169.932C1208.47 169.165 1210.76 168.781 1213.22 168.781C1217.72 168.781 1221.68 169.962 1225.15 172.324C1228.61 174.686 1231.35 178.052 1233.31 182.451C1235.28 186.85 1236.25 192.017 1236.25 197.981C1236.25 203.945 1235.28 209.023 1233.31 213.422C1231.35 217.822 1228.67 221.187 1225.27 223.549C1221.86 225.911 1217.95 227.092 1213.52 227.092C1211.11 227.092 1208.91 226.738 1206.91 226C1204.91 225.262 1203.18 224.258 1201.74 222.929C1200.3 221.601 1199.1 220.125 1198.13 218.471H1197.71V246.638H1179.12H1179.09ZM1206.91 213.481C1209.11 213.481 1210.96 212.832 1212.49 211.562C1214.02 210.293 1215.16 208.492 1215.96 206.218C1216.75 203.945 1217.16 201.199 1217.16 198.01C1217.16 194.822 1216.75 191.987 1215.96 189.684C1215.16 187.382 1214.02 185.61 1212.49 184.34C1210.96 183.071 1209.11 182.421 1206.91 182.421C1204.71 182.421 1202.85 183.071 1201.33 184.34C1199.8 185.61 1198.65 187.411 1197.86 189.684C1197.07 191.958 1196.69 194.733 1196.69 198.01C1196.69 201.288 1197.07 203.856 1197.86 206.159C1198.65 208.462 1199.8 210.293 1201.33 211.562C1202.85 212.832 1204.71 213.481 1206.91 213.481Z" fill="#3362FF"></path>
<g opacity="0.4">
<path d="M848.599 24.966H837.026V227.624H848.599V24.966Z" fill="#101032"></path>
</g>
</svg>